<svg width="52" height="52" viewBox="0 0 52 52" fill="none" xmlns="http://www.w3.org/2000/svg">
<path d="M24.1453 46.1929H19.4548C19.3158 46.1929 19.2027 46.0797 19.2027 45.9369C19.2027 45.3591 19.4165 44.8066 19.8051 44.3813C21.2512 42.7973 24.1254 39.456 27.216 34.7889H34.5859C35.4335 34.7889 36.123 34.0993 36.123 33.2518V31.4999C36.123 30.6524 35.4335 29.9629 34.5859 29.9629H32.4959C31.8918 29.6488 31.2991 29.3254 30.7181 28.9934C32.0851 26.4996 33.2883 23.9772 34.3003 21.4813H35.3549C36.872 25.3444 38.6875 29.0476 40.7549 32.4914C40.8978 32.7293 41.1501 32.8612 41.4088 32.8612C41.5422 32.8612 41.6775 32.8261 41.8002 32.7524C42.1609 32.5359 42.2777 32.068 42.0612 31.7072C40.0689 28.3889 38.3154 24.8232 36.8434 21.1031C37.0554 20.8825 37.1865 20.5837 37.1865 20.2543V18.1468C37.1865 17.1194 36.5225 16.2446 35.6014 15.9275V1.74292C35.6014 1.32225 35.2605 0.981201 34.8397 0.981201C34.4189 0.981201 34.078 1.32225 34.078 1.74292V15.9278C33.1569 16.2449 32.493 17.1196 32.493 18.1471V20.2546C32.493 20.574 32.6167 20.8645 32.8175 21.083C31.8485 23.4528 30.7037 25.8473 29.4067 28.217C25.7631 25.9828 22.6441 23.4045 20.2533 20.6384C20.3518 20.4619 20.4085 20.259 20.4085 20.0429V17.9353C20.4085 16.9079 19.7445 16.0332 18.8234 15.7161V1.74292C18.8234 1.32225 18.4824 0.981201 18.0617 0.981201C17.6409 0.981201 17.3 1.32225 17.3 1.74292V15.7162C16.3789 16.0333 15.715 16.9079 15.715 17.9354V20.043C15.715 20.2486 15.7665 20.4423 15.8562 20.6128C12.0003 24.9188 6.52773 28.2943 3.52544 29.9631H1.53715C0.689508 29.963 0 30.6525 0 31.5V33.2519C0 34.0994 0.689508 34.789 1.53715 34.789H14.0698C14.4284 36.6775 16.091 38.0916 18.0615 38.0916C20.0247 38.0916 21.6933 36.6749 22.053 34.789H25.3815C22.5666 38.9303 20.0081 41.8995 18.6801 43.3541C18.0348 44.0608 17.6793 44.9781 17.6793 45.9408C17.6793 46.9198 18.4758 47.7164 19.4548 47.7164H24.1453C24.566 47.7164 24.907 47.3754 24.907 46.9547C24.907 46.534 24.566 46.1929 24.1453 46.1929ZM34.0163 18.147C34.0163 17.693 34.3857 17.3236 34.8396 17.3236C35.2937 17.3236 35.663 17.693 35.663 18.147V19.9581H34.0163V18.147ZM17.2381 17.9353C17.2381 17.4813 17.6075 17.112 18.0614 17.112C18.5155 17.112 18.8847 17.4813 18.8847 17.9353V19.7464H17.238V17.9353H17.2381ZM1.52344 33.2518V31.4999C1.52344 31.4924 1.52963 31.4863 1.53715 31.4863H11.4501C11.8708 31.4863 12.2118 31.1453 12.2118 30.7246C12.2118 30.3039 11.8708 29.9629 11.4501 29.9629H6.54834C9.78819 27.9843 14.1219 24.9494 17.3069 21.2697H18.7901C21.4793 24.4801 25.0955 27.4518 29.3532 29.9629H14.9563C14.5355 29.9629 14.1946 30.3039 14.1946 30.7246C14.1946 31.1453 14.5355 31.4863 14.9563 31.4863H34.5859C34.5934 31.4863 34.5996 31.4924 34.5996 31.4999V33.2518C34.5996 33.2593 34.5934 33.2655 34.5859 33.2655H1.53715C1.52963 33.2655 1.52344 33.2594 1.52344 33.2518ZM18.0615 36.5681C16.9307 36.5681 15.9617 35.8237 15.6368 34.7889H20.4855C20.1595 35.8224 19.1879 36.5681 18.0615 36.5681Z" fill="#BCDC37"/>
<path d="M50.9206 43.2741C49.8564 42.175 47.0298 39.2551 43.92 34.6322C43.6851 34.283 43.2118 34.1905 42.8628 34.4253C42.5139 34.6601 42.4211 35.1335 42.656 35.4825C45.8413 40.2176 48.7362 43.2079 49.8261 44.3337C50.2456 44.7669 50.4766 45.3377 50.4766 45.9407C50.4766 46.0797 50.3635 46.1929 50.2245 46.1929H27.6516C27.2308 46.1929 26.8899 46.5339 26.8899 46.9546C26.8899 47.3753 27.2308 47.7163 27.6516 47.7163H30.8474C31.2048 49.607 32.8623 51.0189 34.8397 51.0189C36.8021 51.0189 38.4715 49.6019 38.8312 47.7163H50.2245C51.2035 47.7163 52 46.9197 52 45.9407C52 44.9401 51.6167 43.993 50.9206 43.2741ZM34.8396 49.4955C33.7049 49.4955 32.7387 48.7521 32.4148 47.7163H37.2636C36.9376 48.7498 35.9656 49.4955 34.8396 49.4955Z" fill="#BCDC37"/>
</svg>
