<svg width="52" height="57" viewBox="0 0 52 57" fill="none" xmlns="http://www.w3.org/2000/svg">
<path d="M16.2477 24.5004C16.2477 27.5985 17.2773 30.736 19.0723 33.1084C20.9599 35.6032 23.4241 36.9772 26.0108 36.9772C28.5972 36.9772 31.0584 35.6039 32.9411 33.1105C34.7303 30.741 35.7564 27.6048 35.7564 24.5059V21.7763C36.4799 18.3609 36.6316 15.4051 36.6305 13.5199C36.629 11.0858 36.3875 9.40408 36.162 8.64193C36.0423 8.23703 35.683 7.99111 35.3117 8.03052C35.2504 8.0245 35.1875 8.02517 35.1238 8.03508C33.6127 8.27176 31.7589 7.86363 29.7961 7.43157C26.6159 6.73165 23.0231 5.94189 20.2752 8.03018C20.2507 8.02773 20.226 8.02606 20.2009 8.02606C18.6587 8.02606 17.2895 8.7016 16.3453 9.92822C15.4732 11.0613 14.9929 12.6202 14.9929 14.3179C14.9929 17.0983 16.0719 22.2367 16.2476 23.055V24.5004H16.2477ZM31.6893 31.9749C30.121 34.052 28.1042 35.196 26.0108 35.196C23.9163 35.196 21.8963 34.0508 20.323 31.9714C18.7658 29.9133 17.8727 27.1902 17.8727 24.5005V23.4323C17.8727 21.2295 19.2222 18.2349 19.7344 17.1778C27.0414 16.2626 31.9322 18.4743 33.0425 19.0439L34.1314 21.8562V24.506C34.1314 27.1971 33.2413 29.9194 31.6893 31.9749ZM20.201 9.80731C20.26 9.80731 20.3173 9.80008 20.3727 9.78694C20.5959 9.83904 20.8376 9.78905 21.0338 9.62585C23.2246 7.80185 26.4028 8.50132 29.4763 9.17798C31.1211 9.54001 32.6946 9.88624 34.1571 9.88624C34.3596 9.88624 34.5599 9.87956 34.7582 9.86531C35.0031 11.3735 35.2008 14.6202 34.6501 18.6362L34.4207 18.0437C34.3492 17.8591 34.2232 17.7065 34.0627 17.6102C33.8293 17.4703 28.2557 14.2059 19.1846 15.4541C18.9186 15.4689 18.6645 15.6259 18.5213 15.8975C18.4693 15.9962 17.7623 17.3495 17.1503 19.0802C16.8725 17.4307 16.6179 15.5758 16.6179 14.3177C16.618 11.202 18.4175 9.80731 20.201 9.80731Z" fill="#BCDC37"/>
<path d="M40.0039 38.9489C39.9864 38.9436 39.9687 38.9389 39.9509 38.9348L35.1168 37.8264L33.8388 35.7022C33.8299 35.6871 33.8203 35.6724 33.8106 35.6581C33.5782 35.3185 33.2245 35.0944 32.84 35.0432C32.4557 34.9921 32.0632 35.1168 31.7634 35.3857C31.7581 35.3903 31.7528 35.3952 31.7477 35.4L26 40.8236L20.2522 35.4001C20.247 35.3954 20.2418 35.3906 20.2366 35.3858C19.9368 35.1169 19.5443 34.9921 19.16 35.0432C18.7756 35.0944 18.4217 35.3185 18.1895 35.6581C18.1796 35.6724 18.1702 35.6871 18.1612 35.7022L16.8833 37.8264L12.0491 38.9348C12.0313 38.9389 12.0136 38.9436 11.9962 38.9489C10.5906 39.3806 9.39475 40.3359 8.53797 41.7116C7.75635 42.9665 7.32593 44.4814 7.32593 45.9773V47.6518C7.32593 49.1208 8.51929 50.316 9.98615 50.316H24.1501C24.1511 50.316 24.1521 50.3161 24.1531 50.3161C24.1542 50.3161 24.1553 50.316 24.1565 50.316H27.8435C27.8446 50.316 27.8457 50.3161 27.8468 50.3161C27.8478 50.3161 27.8489 50.316 27.8499 50.316H42.0138C43.4806 50.316 44.674 49.1209 44.674 47.6518V45.9773C44.674 44.4813 44.2436 42.9665 43.462 41.7116C42.6054 40.336 41.4095 39.3807 40.0039 38.9489ZM32.6261 36.9218L33.6348 38.5984L29.5978 44.6829L27.1937 42.0478L32.6261 36.9218ZM25.467 46.7609H26.533L26.8567 48.5349H25.1433L25.467 46.7609ZM26.8125 44.4917C26.8125 44.7849 26.6495 44.9795 26.5416 44.9795H25.4583C25.3504 44.9795 25.1874 44.7849 25.1874 44.4917V44.1489L25.9999 43.2582L26.8124 44.1489V44.4917H26.8125ZM19.374 36.9218L24.8064 42.0477L22.4023 44.6828L18.3653 38.5983L19.374 36.9218ZM8.95082 47.6518V45.9773C8.95082 43.8763 10.1387 41.3848 12.4094 40.6719L17.0291 39.6127L21.6474 46.5734C21.7871 46.7841 22.0039 46.917 22.2409 46.9375C22.2621 46.9394 22.2833 46.9402 22.3045 46.9402C22.5191 46.9402 22.7259 46.847 22.8789 46.6794L23.8264 45.6408C23.8693 45.7278 23.9166 45.8113 23.9686 45.8904L23.4861 48.5346H9.98615C9.42492 48.5348 8.95082 48.1304 8.95082 47.6518ZM43.0492 47.6518C43.0492 48.1304 42.5751 48.5348 42.014 48.5348H28.5139L28.0315 45.8905C28.0835 45.8114 28.1307 45.728 28.1737 45.6409L29.1211 46.6795C29.2741 46.8471 29.481 46.9403 29.6956 46.9403C29.7167 46.9403 29.7379 46.9394 29.7591 46.9376C29.9961 46.9173 30.2129 46.7842 30.3527 46.5735L34.9709 39.6128L39.5906 40.672C41.8613 41.3849 43.0492 43.8765 43.0492 45.9774V47.6518Z" fill="#BCDC37"/>
<path d="M6.51676 26.171C6.51676 28.3349 7.18849 30.3655 8.40816 31.8889C9.6461 33.4352 11.2993 34.2867 13.0632 34.2867C14.3856 34.2867 15.6588 33.8029 16.7452 32.8877C17.101 32.588 17.1677 32.0288 16.8942 31.6388C16.6207 31.2488 16.1109 31.1756 15.7549 31.4754C14.9551 32.1492 14.0243 32.5055 13.0632 32.5055C10.3494 32.5055 8.14166 29.6638 8.14166 26.171V25.6476C8.14166 24.2399 8.67273 22.3765 8.95101 21.4964C10.7046 21.326 12.2705 21.5781 13.5494 21.7852L13.6943 21.8085C13.7345 21.815 13.7743 21.8181 13.8137 21.8181C14.21 21.8181 14.5571 21.4998 14.6165 21.0571C14.6819 20.5705 14.375 20.1179 13.931 20.0462L13.7867 20.0229C12.2935 19.7811 10.4357 19.4806 8.26546 19.7851C8.26292 19.7855 8.26028 19.7857 8.25774 19.7861C8.25744 19.7861 8.25713 19.7861 8.25683 19.7863C8.25399 19.7866 8.25124 19.7875 8.2484 19.7879C8.22514 19.7915 8.20199 19.7958 8.17913 19.8016C8.16624 19.8049 8.15385 19.8092 8.14125 19.8131C8.12876 19.817 8.11627 19.8203 8.10398 19.8248C8.08803 19.8306 8.0727 19.8375 8.05726 19.8443C8.04863 19.8482 8.03979 19.8515 8.03116 19.8557C8.01542 19.8634 8.00018 19.872 7.98505 19.8808C7.97692 19.8855 7.9687 19.8897 7.96067 19.8947C7.94676 19.9033 7.93356 19.9127 7.92015 19.9222C7.91111 19.9286 7.90197 19.9347 7.89313 19.9415C7.88196 19.9501 7.8713 19.9595 7.86063 19.9686C7.85028 19.9775 7.83981 19.9861 7.82986 19.9956C7.82133 20.0036 7.81341 20.0121 7.80528 20.0206C7.79401 20.0322 7.78274 20.0436 7.77207 20.0559C7.76547 20.0636 7.75938 20.0717 7.75298 20.0795C7.74191 20.0933 7.73074 20.1069 7.72038 20.1215C7.71428 20.1299 7.7089 20.1389 7.70311 20.1476C7.69367 20.162 7.68402 20.1762 7.67528 20.1914C7.66807 20.2037 7.66167 20.2169 7.65507 20.2297C7.64888 20.2417 7.64228 20.2533 7.63649 20.2657C7.62552 20.2895 7.61556 20.3138 7.60652 20.3386C7.60571 20.3407 7.6048 20.3427 7.60399 20.3448C7.60399 20.3449 7.60378 20.3455 7.60368 20.3456C7.60297 20.3477 7.60226 20.3497 7.60155 20.3517C7.58743 20.3914 7.52883 20.5579 7.44524 20.8178C7.38034 20.2515 7.33779 19.7181 7.33779 19.2909C7.33779 17.3659 8.18523 16.5042 9.02515 16.5042C9.06486 16.5042 9.10356 16.5001 9.14174 16.4941C9.18024 16.5002 9.21903 16.5043 9.25814 16.5043C9.42947 16.5043 9.60213 16.4452 9.74899 16.3228C10.5074 15.6914 11.4857 15.4792 12.9208 15.6345C13.367 15.6833 13.7651 15.3252 13.8093 14.8357C13.8533 14.3463 13.5271 13.9103 13.0805 13.8619C11.9794 13.7427 10.3856 13.7111 8.99864 14.7238C7.06276 14.741 5.71289 16.6139 5.71289 19.291C5.71289 21.1666 6.38747 24.5849 6.51676 25.2229V26.171Z" fill="#BCDC37"/>
<path d="M5.6875 42.3025H2.07055C1.81553 42.3025 1.625 42.1353 1.625 41.9857V40.8455C1.625 39.5246 2.3661 37.9599 3.783 37.5096L6.74172 36.8312L8.26973 39.2474C8.42756 39.4969 8.68065 39.6307 8.93821 39.6307C9.09787 39.6307 9.25925 39.5792 9.40032 39.472C9.76909 39.1918 9.8608 38.6369 9.60517 38.2327L8.08336 35.8261L8.53277 35.0791L11.7014 37.6724C12.0611 37.9667 12.5701 37.8857 12.8385 37.4916C13.107 37.0975 13.0332 36.5394 12.6736 36.2451L9.19577 33.3989C8.93973 33.1779 8.60925 33.0762 8.28516 33.1192C7.95366 33.1632 7.64857 33.3565 7.44819 33.6494C7.43834 33.6638 7.42899 33.6785 7.41995 33.6935L6.60867 35.042L3.42205 35.7727C3.40427 35.7768 3.3866 35.7815 3.36913 35.7868C1.1573 36.4659 0 38.8458 0 40.8455V41.9857C0 43.1426 0.928891 44.0837 2.07055 44.0837H5.6875C6.1362 44.0837 6.5 43.685 6.5 43.1931C6.5 42.7013 6.1362 42.3025 5.6875 42.3025Z" fill="#BCDC37"/>
<path d="M38.1713 14.6928C39.3659 14.719 40.6866 14.9533 41.9639 15.1799C42.929 15.351 43.8534 15.5134 44.6561 15.57C44.6278 17.679 44.5017 19.5756 44.3585 21.1026C44.3568 21.1013 44.3551 21.1002 44.3535 21.0989C44.3407 21.0886 44.3275 21.079 44.3142 21.0697C44.308 21.0653 44.3025 21.0604 44.2962 21.0563C44.2892 21.0517 44.2819 21.0473 44.2748 21.0426C44.2739 21.0421 44.2729 21.0414 44.2719 21.0409C42.646 19.9674 40.6755 19.3481 38.2483 19.1486C37.8004 19.1114 37.4109 19.4797 37.3773 19.9701C37.3436 20.4606 37.6792 20.8881 38.1267 20.9248C40.197 21.0951 41.8733 21.5934 43.2422 22.4447C43.4347 22.9422 43.8583 24.2015 43.8583 25.6475V26.171C43.8583 29.6639 41.6505 32.5054 38.9368 32.5054C37.9757 32.5054 37.045 32.1492 36.245 31.4753C35.8893 31.1756 35.3791 31.2488 35.1057 31.6387C34.8323 32.0287 34.8989 32.5878 35.2547 32.8876C36.3411 33.803 37.6143 34.2867 38.9368 34.2867C40.7007 34.2867 42.3539 33.4351 43.5918 31.8889C44.8114 30.3654 45.4832 28.3347 45.4832 26.171V25.2084C45.5973 24.5427 46.2681 20.3966 46.2861 14.9168C46.3069 14.829 46.3161 14.7362 46.311 14.6407C46.2855 14.1655 45.924 13.8001 45.4949 13.8035C45.4881 13.8033 45.4814 13.8024 45.4745 13.8024C45.4588 13.8024 45.4435 13.8041 45.4279 13.805C44.6416 13.8497 43.4669 13.642 42.2233 13.4214C40.9527 13.1961 39.5125 12.9406 38.2037 12.912C37.7521 12.9001 37.3841 13.2929 37.375 13.7846C37.3662 14.2763 37.7227 14.683 38.1713 14.6928Z" fill="#BCDC37"/>
<path d="M48.6309 35.7866C48.6135 35.7812 48.5958 35.7765 48.578 35.7724L45.3914 35.0418L44.5801 33.6933C44.5711 33.6783 44.5616 33.6636 44.5519 33.6492C44.3515 33.3563 44.0464 33.163 43.7149 33.1189C43.3906 33.0759 43.0603 33.1776 42.8043 33.3987L39.3265 36.2449C38.9669 36.5391 38.893 37.0972 39.1616 37.4913C39.4301 37.8855 39.9392 37.9665 40.2986 37.6721L43.4673 35.0788L43.9167 35.8259L42.3948 38.2323C42.1392 38.6366 42.2309 39.1914 42.5996 39.4716C42.7408 39.5788 42.9021 39.6304 43.0618 39.6304C43.3192 39.6304 43.5724 39.4966 43.7302 39.2471L45.2582 36.8308L48.217 37.5092C49.6338 37.9596 50.375 39.5244 50.375 40.8452V41.9853C50.375 42.1348 50.1844 42.3021 49.9294 42.3021H46.3125C45.8638 42.3021 45.5 42.7009 45.5 43.1928C45.5 43.6846 45.8638 44.0834 46.3125 44.0834H49.9294C51.0711 44.0834 52 43.1422 52 41.9853V40.8452C52 38.8456 50.8427 36.4658 48.6309 35.7866Z" fill="#BCDC37"/>
</svg>
