<svg width="48" height="48" viewBox="0 0 48 48" fill="none" xmlns="http://www.w3.org/2000/svg">
<path d="M33 33C32.5858 33 32.25 33.3358 32.25 33.75C32.25 34.1642 32.5858 34.5 33 34.5C33.8271 34.5 34.5 35.1729 34.5 36C34.5 36.4142 34.8358 36.75 35.25 36.75C35.6642 36.75 36 36.4142 36 36C36 34.3458 34.6542 33 33 33Z" fill="#BCDC37"/>
<path d="M39.75 0H8.25C7.00941 0 6 1.00941 6 2.25V42.75C6 43.9906 7.00941 45 8.25 45H24.7581C24.7679 45.0731 24.7874 45.1454 24.8191 45.214C24.9217 45.4359 25.1258 45.594 25.3665 45.6375L27.3127 45.9895L29.0315 47.7708C29.1737 47.9182 29.369 48 29.5711 48C29.6019 48 29.6331 47.998 29.664 47.9942C29.8984 47.9649 30.1052 47.827 30.2223 47.6221L31.7208 45H34.2622L35.746 47.6197C35.8627 47.8255 36.0696 47.9643 36.3043 47.9941C36.3358 47.998 36.3673 48 36.3986 48C36.6008 48 36.796 47.9182 36.9382 47.7708L38.657 45.9895L40.6032 45.6375C40.8433 45.5941 41.0472 45.4366 41.15 45.2153C41.2519 44.9959 41.2413 44.7411 41.1223 44.5306C41.6699 44.1071 42 43.4484 42 42.75V2.25C42 1.00941 40.9906 0 39.75 0ZM7.5 42.75V2.25C7.5 1.83647 7.83647 1.5 8.25 1.5H39.75C40.1635 1.5 40.5 1.83647 40.5 2.25V42.75C40.5 42.9109 40.4462 43.0653 40.3524 43.1924L38.0622 39.2146C38.6549 38.2846 39 37.1822 39 36C39 32.6916 36.3084 30 33 30C29.6916 30 27 32.6916 27 36C27 37.1814 27.3446 38.2833 27.9367 39.2129L25.4458 43.5H8.25C7.83647 43.5 7.5 43.1635 7.5 42.75ZM33 40.5C30.5187 40.5 28.5 38.4813 28.5 36C28.5 33.5187 30.5187 31.5 33 31.5C35.4813 31.5 37.5 33.5187 37.5 36C37.5 38.4813 35.4813 40.5 33 40.5ZM29.4163 46.0094L28.2241 44.7739C28.1148 44.6606 27.9727 44.5847 27.8179 44.5567L26.6857 44.3518L28.962 40.4339C29.7415 41.1445 30.7086 41.6527 31.7791 41.8748L29.4163 46.0094ZM32.578 43.5L32.9971 42.7666L33.4125 43.5H32.578ZM38.152 44.5567C37.9972 44.5847 37.8551 44.6606 37.7458 44.7739L36.5563 46.0065L34.2165 41.8758C35.2874 41.6543 36.2549 41.1468 37.0351 40.4366L39.2887 44.351L38.152 44.5567Z" fill="#BCDC37"/>
<path d="M30 11.25C30.4142 11.25 30.75 10.9142 30.75 10.5C30.75 10.0858 30.4142 9.75 30 9.75H18C17.5858 9.75 17.25 10.0858 17.25 10.5C17.25 10.9142 17.5858 11.25 18 11.25H30Z" fill="#BCDC37"/>
<path d="M33.75 13.5H14.25C13.8358 13.5 13.5 13.8358 13.5 14.25C13.5 14.6642 13.8358 15 14.25 15H33.75C34.1642 15 34.5 14.6642 34.5 14.25C34.5 13.8358 34.1642 13.5 33.75 13.5Z" fill="#BCDC37"/>
<path d="M16.5 21H17.25C17.6642 21 18 20.6642 18 20.25C18 19.8358 17.6642 19.5 17.25 19.5H16.5C16.0858 19.5 15.75 19.8358 15.75 20.25C15.75 20.6642 16.0858 21 16.5 21Z" fill="#BCDC37"/>
<path d="M16.5 24.75H17.25C17.6642 24.75 18 24.4142 18 24C18 23.5858 17.6642 23.25 17.25 23.25H16.5C16.0858 23.25 15.75 23.5858 15.75 24C15.75 24.4142 16.0858 24.75 16.5 24.75Z" fill="#BCDC37"/>
<path d="M16.5 28.5H17.25C17.6642 28.5 18 28.1642 18 27.75C18 27.3358 17.6642 27 17.25 27H16.5C16.0858 27 15.75 27.3358 15.75 27.75C15.75 28.1642 16.0858 28.5 16.5 28.5Z" fill="#BCDC37"/>
<path d="M31.5 19.5H20.25C19.8358 19.5 19.5 19.8358 19.5 20.25C19.5 20.6642 19.8358 21 20.25 21H31.5C31.9142 21 32.25 20.6642 32.25 20.25C32.25 19.8358 31.9142 19.5 31.5 19.5Z" fill="#BCDC37"/>
<path d="M31.5 23.25H20.25C19.8358 23.25 19.5 23.5858 19.5 24C19.5 24.4142 19.8358 24.75 20.25 24.75H31.5C31.9142 24.75 32.25 24.4142 32.25 24C32.25 23.5858 31.9142 23.25 31.5 23.25Z" fill="#BCDC37"/>
<path d="M31.5 27H20.25C19.8358 27 19.5 27.3358 19.5 27.75C19.5 28.1642 19.8358 28.5 20.25 28.5H31.5C31.9142 28.5 32.25 28.1642 32.25 27.75C32.25 27.3358 31.9142 27 31.5 27Z" fill="#BCDC37"/>
<path d="M13.5 35.25C13.5 35.6642 13.8358 36 14.25 36H21C21.4142 36 21.75 35.6642 21.75 35.25C21.75 34.8358 21.4142 34.5 21 34.5H14.25C13.8358 34.5 13.5 34.8358 13.5 35.25Z" fill="#BCDC37"/>
<path d="M24 40.5H13.4246C13.1256 39.0329 11.9671 37.8744 10.5 37.5754V7.42462C11.9671 7.12556 13.1256 5.96709 13.4246 4.5H34.5753C34.8743 5.96709 36.0328 7.12556 37.4999 7.42462V30C37.4999 30.4142 37.8357 30.75 38.2499 30.75C38.6641 30.75 38.9999 30.4142 38.9999 30V6.75C38.9999 6.33581 38.6641 6 38.2499 6C37.0092 6 35.9999 4.99069 35.9999 3.75C35.9999 3.33581 35.6641 3 35.2499 3H12.75C12.3358 3 12 3.33581 12 3.75C12 4.99069 10.9907 6 9.75 6C9.33581 6 9 6.33581 9 6.75V38.25C9 38.6642 9.33581 39 9.75 39C10.9907 39 12 40.0093 12 41.25C12 41.6642 12.3358 42 12.75 42H24C24.4142 42 24.75 41.6642 24.75 41.25C24.75 40.8358 24.4142 40.5 24 40.5Z" fill="#BCDC37"/>
</svg>
