<svg width="51" height="51" viewBox="0 0 51 51" fill="none" xmlns="http://www.w3.org/2000/svg">
<path fill-rule="evenodd" clip-rule="evenodd" d="M13.3259 16.9655C13.8485 17.1382 14.4119 16.855 14.5843 16.3324C16.1481 11.6029 20.5476 8.42554 25.5324 8.42554C31.8891 8.42554 37.061 13.5971 37.061 19.9542C37.061 24.8673 34.8602 27.8027 33.0922 30.1614C31.8058 31.8769 30.6949 33.359 30.6949 35.1563C30.6949 35.2745 30.6934 35.3917 30.6906 35.508H26.5285V33.2197C26.5285 32.6695 26.0825 32.2236 25.5324 32.2236C24.9822 32.2236 24.5363 32.6695 24.5363 33.2197V35.508H20.3737C20.371 35.3917 20.3694 35.2745 20.3694 35.1563C20.3694 33.3586 19.2585 31.8769 17.9722 30.161C16.6698 28.4237 15.194 26.4544 14.4621 23.6564C14.3228 23.1241 13.7781 22.8055 13.2462 22.9448C12.7143 23.0837 12.3956 23.6284 12.5349 24.1603C13.3656 27.3365 15.036 29.5653 16.3784 31.3559C17.4951 32.8458 18.3772 34.0224 18.3772 35.1563C18.3772 35.6333 18.3974 36.0987 18.4367 36.5426V44.9682C18.4367 44.995 18.4387 45.0211 18.4406 45.0472C18.4414 45.0534 18.441 45.06 18.4418 45.0662C18.4453 45.1032 18.4511 45.139 18.4585 45.1748V45.1756C18.8044 46.7981 19.69 48.2736 20.9531 49.33C22.2402 50.407 23.8666 51 25.5324 51C27.1981 51 28.8241 50.407 30.1117 49.33C31.3743 48.2736 32.2603 46.7981 32.6058 45.1756C32.6058 45.1752 32.6062 45.1748 32.6062 45.1744C32.6136 45.139 32.619 45.1032 32.6229 45.0662C32.6233 45.06 32.6233 45.0534 32.6237 45.0472C32.6256 45.0207 32.6276 44.9946 32.6276 44.9678V36.5426C32.6669 36.0987 32.6875 35.6333 32.6875 35.1563C32.6875 34.0224 33.5696 32.8458 34.6863 31.3559C36.5291 28.8976 39.0532 25.5311 39.0532 19.9542C39.0532 12.4986 32.9875 6.43335 25.5324 6.43335C19.6865 6.43335 14.5271 10.1601 12.6929 15.7071C12.5201 16.2293 12.8038 16.7927 13.3259 16.9655ZM25.5324 49.0078C23.5071 49.0078 21.6807 47.7829 20.8153 45.9639H30.2494C29.3837 47.7829 27.5572 49.0078 25.5324 49.0078ZM30.6358 43.9717H20.4289V41.732H30.6358V43.9717ZM30.6358 39.7398H20.4289V37.5002H30.6358V39.7398Z" fill="#BCDC37"/>
<path fill-rule="evenodd" clip-rule="evenodd" d="M25.5322 4.64623C26.0824 4.64623 26.5283 4.20033 26.5283 3.65014V0.996094C26.5283 0.445908 26.0824 0 25.5322 0C24.982 0 24.5361 0.445908 24.5361 0.996094V3.65014C24.5361 4.20033 24.982 4.64623 25.5322 4.64623Z" fill="#BCDC37"/>
<path fill-rule="evenodd" clip-rule="evenodd" d="M6.57422 20.9503H9.22826C9.77845 20.9503 10.2244 20.5044 10.2244 19.9542C10.2244 19.404 9.77845 18.9581 9.22826 18.9581H6.57422C6.02403 18.9581 5.57812 19.404 5.57812 19.9542C5.57812 20.5044 6.02403 20.9503 6.57422 20.9503Z" fill="#BCDC37"/>
<path fill-rule="evenodd" clip-rule="evenodd" d="M30.0929 21.9666C30.0929 21.4164 29.647 20.9705 29.0968 20.9705H21.9678C21.4176 20.9705 20.9717 21.4164 20.9717 21.9666C20.9717 22.5167 21.4176 22.9626 21.9678 22.9626H24.5362V25.2509C24.5362 25.8011 24.9821 26.247 25.5323 26.247C26.0825 26.247 26.5284 25.8011 26.5284 25.2509V22.9626H29.0968C29.647 22.9626 30.0929 22.5167 30.0929 21.9666Z" fill="#BCDC37"/>
<path fill-rule="evenodd" clip-rule="evenodd" d="M13.2994 9.12984C13.494 9.32439 13.7488 9.42167 14.0037 9.42167C14.2585 9.42167 14.5134 9.32439 14.7079 9.12984C15.097 8.74075 15.097 8.11002 14.7079 7.72131L12.8313 5.84468C12.4422 5.45558 11.8115 5.45558 11.4224 5.84468C11.0337 6.23339 11.0337 6.86412 11.4224 7.25322L13.2994 9.12984Z" fill="#BCDC37"/>
<path fill-rule="evenodd" clip-rule="evenodd" d="M11.4398 35.0426C11.6947 35.0426 11.9495 34.9454 12.1441 34.7508L14.0207 32.8742C14.4098 32.4851 14.4098 31.8548 14.0207 31.4657C13.6316 31.0766 13.0009 31.0766 12.6122 31.4657L10.7351 33.3423C10.3464 33.7314 10.3464 34.3621 10.7351 34.7508C10.9297 34.9454 11.1845 35.0426 11.4398 35.0426Z" fill="#BCDC37"/>
<path fill-rule="evenodd" clip-rule="evenodd" d="M37.0608 9.42167C37.3157 9.42167 37.5706 9.32439 37.7651 9.12984L39.6417 7.25322C40.0308 6.86412 40.0308 6.23339 39.6417 5.84429C39.253 5.45519 38.6223 5.45558 38.2332 5.84429L36.3566 7.72092C35.9675 8.11001 35.9675 8.74074 36.3562 9.12984C36.5507 9.32439 36.806 9.42167 37.0608 9.42167Z" fill="#BCDC37"/>
<path fill-rule="evenodd" clip-rule="evenodd" d="M37.0438 31.4657C36.6547 31.8544 36.6547 32.4851 37.0438 32.8742L38.9204 34.7508C39.115 34.9454 39.3698 35.0426 39.6247 35.0426C39.8795 35.0426 40.1344 34.9454 40.3289 34.7508C40.718 34.3621 40.718 33.7314 40.3289 33.3423L38.4523 31.4657C38.0632 31.0766 37.4325 31.0766 37.0438 31.4657Z" fill="#BCDC37"/>
<path fill-rule="evenodd" clip-rule="evenodd" d="M41.8364 20.9503H44.4905C45.0407 20.9503 45.4866 20.5044 45.4866 19.9542C45.4866 19.404 45.0407 18.9581 44.4905 18.9581H41.8364C41.2862 18.9581 40.8403 19.404 40.8403 19.9542C40.8403 20.5044 41.2862 20.9503 41.8364 20.9503Z" fill="#BCDC37"/>
<path fill-rule="evenodd" clip-rule="evenodd" d="M25.5322 28.2393C24.9836 28.2393 24.5361 28.6867 24.5361 29.2354C24.5361 29.784 24.9836 30.2314 25.5322 30.2314C26.0809 30.2314 26.5283 29.784 26.5283 29.2354C26.5283 28.6867 26.0809 28.2393 25.5322 28.2393Z" fill="#BCDC37"/>
<path fill-rule="evenodd" clip-rule="evenodd" d="M14.0037 19.9542C14.0037 19.4056 13.5562 18.9581 13.0076 18.9581C12.4585 18.9581 12.0115 19.4056 12.0115 19.9542C12.0115 20.5029 12.4585 20.9503 13.0076 20.9503C13.5562 20.9503 14.0037 20.5029 14.0037 19.9542Z" fill="#BCDC37"/>
</svg>
