<svg width="52" height="52" viewBox="0 0 52 52" fill="none" xmlns="http://www.w3.org/2000/svg">
<path d="M41.8213 19.5477C41.3982 19.6972 41.1764 20.1615 41.326 20.5845C41.9391 22.3197 42.25 24.1417 42.25 26C42.25 34.9604 34.9603 42.25 26 42.25C17.0398 42.25 9.75 34.9604 9.75 26C9.75 17.0396 17.0398 9.75 26 9.75C29.8545 9.75 33.5917 11.1233 36.5231 13.6171C36.8649 13.9077 37.3776 13.8664 37.6684 13.5247C37.9592 13.1829 37.9179 12.6701 37.576 12.3794C34.3511 9.63584 30.2399 8.125 26 8.125C16.1437 8.125 8.125 16.1437 8.125 26C8.125 35.8563 16.1437 43.875 26 43.875C35.8563 43.875 43.875 35.8563 43.875 26C43.875 23.9568 43.5328 21.9525 42.8582 20.0432C42.7087 19.62 42.2445 19.3981 41.8213 19.5477Z" fill="#BCDC37"/>
<path d="M39.8438 17.4856C39.9973 17.7348 40.2635 17.872 40.5362 17.872C40.6817 17.872 40.8288 17.8329 40.9618 17.7511C41.3437 17.5157 41.4626 17.0151 41.227 16.6331C40.8665 16.0481 40.4676 15.4776 40.0415 14.9375C39.7635 14.5851 39.2527 14.5249 38.9004 14.8029C38.548 15.0808 38.4878 15.5918 38.7657 15.944C39.1532 16.4351 39.5159 16.9538 39.8438 17.4856Z" fill="#BCDC37"/>
<path d="M48.75 21.125H47.3898C46.8414 18.7029 45.8963 16.42 44.573 14.3212L45.5338 13.3604C46.801 12.0932 46.801 10.0315 45.5338 8.76423L43.2358 6.46608C41.9687 5.19919 39.9067 5.19909 38.6396 6.46608L37.6788 7.42696C35.5801 6.1037 33.2972 5.15856 30.875 4.61023V3.25C30.875 1.45793 29.4171 0 27.625 0H24.375C22.5829 0 21.125 1.45793 21.125 3.25V4.61023C18.7028 5.15866 16.4199 6.1037 14.3212 7.42696L13.3604 6.46608C12.0934 5.19919 10.0314 5.19909 8.76423 6.46608L6.46618 8.76434C5.19898 10.0315 5.19898 12.0933 6.46618 13.3605L7.42696 14.3212C6.1037 16.4201 5.15856 18.703 4.61023 21.125H3.25C1.45793 21.125 0 22.5829 0 24.375V27.625C0 29.4171 1.45793 30.875 3.25 30.875H4.61023C5.15856 33.2971 6.1037 35.5799 7.42696 37.6787L6.46618 38.6396C5.19898 39.9067 5.19898 41.9685 6.46618 43.2358L8.76423 45.5339C10.0313 46.8009 12.0931 46.8012 13.3604 45.5338L14.3212 44.5729C16.42 45.8963 18.7028 46.8414 21.1249 47.3897V48.75C21.1249 50.5421 22.5828 52 24.3749 52H27.6249C29.417 52 30.8749 50.5421 30.8749 48.75V47.3897C33.2969 46.8414 35.5798 45.8963 37.6786 44.573L38.6394 45.5339C39.9064 46.8009 41.9684 46.8011 43.2356 45.5339L45.5336 43.2357C46.8008 41.9685 46.8008 39.9067 45.5336 38.6395L44.5728 37.6788C45.8961 35.58 46.8412 33.2971 47.3896 30.875H48.75C50.5421 30.875 52 29.4171 52 27.625V24.375C52 22.5829 50.5421 21.125 48.75 21.125ZM50.375 27.625C50.375 28.521 49.646 29.25 48.75 29.25H46.7306C46.3419 29.25 46.0075 29.5254 45.9332 29.9071C45.4125 32.5795 44.3779 35.078 42.8587 37.3334C42.6414 37.6558 42.6831 38.087 42.958 38.3619L44.3847 39.7886C45.0183 40.4222 45.0183 41.4531 44.3847 42.0867L42.0867 44.3848C41.453 45.0184 40.4222 45.0184 39.7885 44.3848L38.3618 42.958C38.087 42.6832 37.6556 42.6415 37.3334 42.8587C35.0778 44.378 32.5792 45.4125 29.9071 45.9331C29.5254 46.0074 29.25 46.3418 29.25 46.7306V48.75C29.25 49.646 28.521 50.375 27.625 50.375H24.375C23.479 50.375 22.75 49.646 22.75 48.75V46.7305C22.75 46.3418 22.4746 46.0074 22.0929 45.933C19.4207 45.4124 16.9221 44.3778 14.6667 42.8586C14.5285 42.7654 14.3704 42.7199 14.2131 42.7199C14.0034 42.7199 13.7953 42.8009 13.6382 42.958L12.2115 44.3848C11.5778 45.0184 10.547 45.0184 9.91331 44.3848L7.61526 42.0867C6.98171 41.4531 6.98171 40.4222 7.61526 39.7886L9.04211 38.3618C9.31704 38.0869 9.35868 37.6557 9.14144 37.3333C7.62216 35.0779 6.58765 32.5793 6.06694 29.9071C5.99259 29.5254 5.65825 29.25 5.26947 29.25H3.25C2.35402 29.25 1.625 28.521 1.625 27.625V24.375C1.625 23.479 2.35402 22.75 3.25 22.75H5.26937C5.65815 22.75 5.99249 22.4746 6.06684 22.0929C6.58755 19.4207 7.62196 16.9222 9.14134 14.6666C9.35858 14.3442 9.31684 13.913 9.04191 13.6381L7.61516 12.2114C6.98161 11.5778 6.98161 10.5469 7.61516 9.91331L9.91331 7.61516C10.547 6.98171 11.5778 6.98151 12.2115 7.61516L13.6382 9.04201C13.9131 9.31684 14.3443 9.35858 14.6666 9.14134C16.9218 7.62206 19.4204 6.58765 22.0929 6.06694C22.4745 5.99259 22.75 5.65825 22.75 5.26937V3.25C22.75 2.35402 23.479 1.625 24.375 1.625H27.625C28.521 1.625 29.25 2.35402 29.25 3.25V5.26937C29.25 5.65815 29.5254 5.99249 29.9071 6.06694C32.5795 6.58775 35.0781 7.62216 37.3334 9.14134C37.6557 9.35858 38.0869 9.31694 38.3618 9.04201L39.7885 7.61516C40.4222 6.98171 41.453 6.98151 42.0867 7.61516L44.3847 9.91331C45.0183 10.5469 45.0183 11.5778 44.3847 12.2114L42.958 13.6381C42.6831 13.913 42.6414 14.3442 42.8587 14.6666C44.378 16.922 45.4125 19.4207 45.9331 22.0929C46.0074 22.4746 46.3418 22.75 46.7306 22.75H48.75C49.646 22.75 50.375 23.479 50.375 24.375V27.625Z" fill="#BCDC37"/>
<path d="M21.4153 29.9491L18.3878 30.7353C18.3828 30.7366 18.3777 30.7379 18.3728 30.7393C16.4457 31.2792 15.4375 33.1684 15.4375 34.7555V35.6331C15.4375 36.5936 16.2781 37.375 17.3115 37.375L25.9868 37.3741C25.9931 37.3742 25.9991 37.375 26.0054 37.375C26.0117 37.375 26.0178 37.3742 26.0241 37.3741L34.6994 37.3732C35.7327 37.3732 36.5734 36.5918 36.5734 35.6313V34.7537C36.5734 33.1665 35.5652 31.2773 33.6381 30.7375C33.6331 30.7361 33.6282 30.7347 33.6232 30.7334L30.5958 29.9472C30.3392 29.8717 30.1363 29.7387 30.0926 29.6694L30.0905 28.0226C30.0931 28.0196 30.0957 28.0168 30.0983 28.0139C31.1363 26.7731 31.708 25.1656 31.708 23.4872V22.2608C32.7436 18.8871 32.0138 15.9619 31.6393 15.1106C31.638 15.1077 31.6364 15.1052 31.6351 15.1023C31.6279 15.0864 31.6199 15.071 31.6117 15.0557C31.6071 15.0469 31.6026 15.038 31.5975 15.0293C31.5897 15.0158 31.5811 15.0029 31.5725 14.9899C31.566 14.98 31.5596 14.9699 31.5527 14.9604C31.5453 14.9501 31.5372 14.9405 31.5294 14.9306C31.5204 14.9193 31.5115 14.908 31.502 14.8973C31.4953 14.8897 31.488 14.8827 31.481 14.8755C31.4697 14.8636 31.4584 14.8518 31.4464 14.8407C31.4398 14.8346 31.4327 14.829 31.426 14.8233C31.4131 14.8121 31.4002 14.8009 31.3866 14.7906C31.3787 14.7847 31.3705 14.7794 31.3625 14.7738C31.3495 14.7646 31.3366 14.7554 31.3231 14.7471C31.3126 14.7406 31.3017 14.7349 31.2909 14.7289C31.2793 14.7225 31.2679 14.7157 31.2561 14.7098C31.2427 14.7032 31.2288 14.6974 31.215 14.6915C31.2052 14.6873 31.1954 14.6827 31.1854 14.6788C31.1703 14.673 31.1548 14.6683 31.1394 14.6634C31.13 14.6604 31.1208 14.6571 31.1113 14.6545C31.0963 14.6503 31.0811 14.6472 31.0657 14.6439C31.0551 14.6417 31.0446 14.639 31.0338 14.6372C31.0204 14.635 31.0068 14.6334 30.9933 14.6318C30.98 14.6302 30.9668 14.6284 30.9534 14.6274C30.9423 14.6266 30.9313 14.6266 30.9201 14.6263C30.9037 14.6258 30.8875 14.6254 30.871 14.6259C30.862 14.6261 30.8529 14.627 30.8438 14.6276C30.8255 14.6288 30.8072 14.6303 30.7889 14.6327C30.7861 14.633 30.7834 14.633 30.7807 14.6334C29.9977 14.7455 29.0425 14.5166 28.0314 14.2746C26.2427 13.8462 24.2254 13.3644 22.4581 14.6386C20.7492 14.7855 19.5376 16.2216 19.5376 18.1626C19.5376 19.5741 20.1926 22.0952 20.3427 22.6546V23.3332C20.3427 25.085 20.9489 26.7043 21.9207 27.9123L21.9185 29.6714C21.8747 29.7405 21.6719 29.8735 21.4153 29.9491ZM21.9676 23.0554C21.9676 22.2478 22.3093 21.0668 22.5648 20.3197C26.2461 20.4042 29.0238 21.2883 30.083 21.6802V22.1312C30.083 22.1336 30.083 22.1362 30.083 22.1386V23.4869C30.083 24.9193 29.5444 26.2315 28.7042 27.1395C28.702 27.1418 28.6999 27.1441 28.6978 27.1463C27.9755 27.9239 27.0317 28.4036 26.0145 28.4036C23.8587 28.4036 21.9677 26.034 21.9677 23.3328V23.0554H21.9676ZM23.5438 29.334C24.2954 29.777 25.1352 30.0287 26.0144 30.0287C26.8775 30.0287 27.7104 29.8052 28.4672 29.3823L28.4676 29.6801C28.4676 30.083 28.6128 30.4208 28.8383 30.6971L26.0089 32.367L23.1913 30.6763C23.4061 30.4045 23.5434 30.0744 23.5434 29.683L23.5438 29.334ZM17.3114 35.75C17.1455 35.75 17.0625 35.6553 17.0625 35.6331V34.7555C17.0625 33.7827 17.6608 32.6302 18.8045 32.3059L21.5571 31.5911L25.193 33.7726V35.7491L17.3114 35.75ZM34.9484 34.7536V35.6312C34.9484 35.6535 34.8654 35.7481 34.6993 35.7481L26.8179 35.7489V33.7763L30.5025 31.6017L33.2067 32.304C34.3503 32.6285 34.9484 33.7808 34.9484 34.7536ZM22.7492 16.25C22.7517 16.25 22.7542 16.2497 22.7567 16.2496C22.781 16.2494 22.8051 16.2483 22.8293 16.2459C22.8372 16.2452 22.8449 16.2437 22.8527 16.2427C22.8713 16.2404 22.8898 16.2379 22.9082 16.2343C22.9182 16.2323 22.9278 16.2296 22.9377 16.2271C22.9536 16.2234 22.9695 16.2197 22.9853 16.215C22.9961 16.2117 23.0064 16.2076 23.0171 16.2039C23.0315 16.1989 23.0459 16.194 23.0601 16.1882C23.0713 16.1835 23.0821 16.178 23.0931 16.1729C23.1061 16.1668 23.1191 16.161 23.1318 16.1542C23.1442 16.1476 23.1559 16.1401 23.1678 16.1329C23.1785 16.1265 23.1895 16.1204 23.1999 16.1134C23.2151 16.1032 23.2294 16.0922 23.2438 16.0811C23.2502 16.0761 23.257 16.0719 23.2633 16.0667C24.4588 15.0898 26.0103 15.4615 27.6529 15.8545C28.537 16.0663 29.445 16.2831 30.3266 16.2864C30.5384 17.0691 30.7467 18.4561 30.523 20.1083C29.2005 19.6265 26.0976 18.6874 21.9993 18.6874C21.9975 18.6874 21.9958 18.6876 21.9941 18.6876C21.9741 18.6877 21.9542 18.689 21.9343 18.6906C21.9267 18.6913 21.919 18.6915 21.9115 18.6923C21.8946 18.6941 21.878 18.697 21.8613 18.6999C21.851 18.7017 21.8405 18.703 21.8304 18.7052C21.8181 18.7078 21.8061 18.7114 21.794 18.7145C21.7801 18.7182 21.7661 18.7214 21.7524 18.7257C21.7444 18.7282 21.7367 18.7316 21.7289 18.7343C21.7119 18.7403 21.6949 18.7462 21.6784 18.7533C21.6722 18.756 21.6662 18.7593 21.6601 18.7621C21.6428 18.7702 21.6254 18.7782 21.6087 18.7873C21.5992 18.7925 21.5902 18.7986 21.5809 18.8043C21.5682 18.8119 21.5553 18.8192 21.5431 18.8276C21.5277 18.838 21.513 18.8496 21.4982 18.8612C21.4928 18.8654 21.487 18.8693 21.4817 18.8738C21.4645 18.8879 21.4482 18.9031 21.4322 18.9188C21.4297 18.9212 21.4268 18.9235 21.4243 18.9261C21.4099 18.9405 21.3964 18.9559 21.383 18.9716C21.3792 18.9759 21.375 18.98 21.3714 18.9845C21.361 18.9971 21.3516 19.0105 21.3419 19.0239C21.3357 19.0323 21.3292 19.0405 21.3235 19.0493C21.3168 19.0594 21.3108 19.0701 21.3045 19.0805C21.2966 19.0934 21.2886 19.1063 21.2815 19.1199C21.2772 19.1279 21.2736 19.1364 21.2696 19.1446C21.2643 19.1553 21.2589 19.1659 21.2541 19.1769C21.1979 18.7936 21.1626 18.4415 21.1626 18.1625C21.1625 17.2803 21.578 16.25 22.7492 16.25Z" fill="#BCDC37"/>
</svg>
