<svg width="52" height="52" viewBox="0 0 52 52" fill="none" xmlns="http://www.w3.org/2000/svg">
<g clip-path="url(#clip0)">
<path d="M43.0625 42.6562H41.4375C40.9888 42.6562 40.625 43.02 40.625 43.4688C40.625 43.9175 40.9888 44.2812 41.4375 44.2812H43.0625C43.5112 44.2812 43.875 43.9175 43.875 43.4688C43.875 43.02 43.5112 42.6562 43.0625 42.6562Z" fill="#BCDC37"/>
<path d="M51.1875 42.6562H49.5625V40.2187C49.5625 39.77 49.1987 39.4062 48.75 39.4062H47.125V19.9063H48.75C49.1987 19.9063 49.5625 19.5425 49.5625 19.0938V16.6563H51.1875C51.5744 16.6563 51.9077 16.3834 51.984 16.004C52.0603 15.6247 51.8586 15.2442 51.5017 15.0945L26.3143 4.53197C26.1133 4.44768 25.8868 4.44768 25.6858 4.53197L0.498348 15.0945C0.141458 15.2441 -0.0602445 15.6246 0.0160288 16.004C0.0923021 16.3834 0.42563 16.6563 0.812582 16.6563H2.43758V19.0938C2.43758 19.5425 2.80137 19.9063 3.25008 19.9063H4.87507V39.4062H3.25008C2.80137 39.4062 2.43758 39.77 2.43758 40.2187V42.6562H0.812582C0.36388 42.6562 8.35027e-05 43.02 8.35027e-05 43.4687V46.7187C8.35027e-05 47.1674 0.36388 47.5312 0.812582 47.5312H51.1875C51.6362 47.5312 52 47.1674 52 46.7187V43.4687C52 43.0199 51.6362 42.6562 51.1875 42.6562ZM45.5 39.4062H43.0625V19.9063H45.5V39.4062ZM39.8125 39.4062V19.9063H41.4375V39.4062H39.8125ZM32.5 39.4062V19.9063H34.125V39.4062H32.5ZM25.1875 39.4062V19.9063H26.8125V39.4062H25.1875ZM17.8751 39.4062V19.9063H19.5V39.4062H17.8751ZM10.5626 39.4062V19.9063H12.1876V39.4062H10.5626ZM13.8126 19.9063H16.2501V39.4062H13.8126V19.9063ZM21.125 19.9063H23.5625V39.4062H21.125V19.9063ZM28.4375 19.9063H30.875V39.4062H28.4375V19.9063ZM35.75 19.9063H38.1875V39.4062H35.75V19.9063ZM4.06258 16.6563H38.1872C38.6359 16.6563 38.9997 16.2925 38.9997 15.8438C38.9997 15.3951 38.6359 15.0313 38.1872 15.0313H4.851L25.9999 6.16235L47.1489 15.0313H46.3122C45.8635 15.0313 45.4997 15.3951 45.4997 15.8438C45.4997 16.2925 45.8635 16.6563 46.3122 16.6563H47.9373V18.2813H46.3123H42.2498H38.9998H34.9373H31.6873H27.6248H24.3748H20.3123H17.0623H12.9999H9.74986H5.68737H4.06237V16.6563H4.06258ZM6.50007 19.9063H8.93757V39.4062H6.50007V19.9063ZM50.375 45.9062H1.62508V44.2812H38.1875C38.6362 44.2812 39 43.9174 39 43.4687C39 43.02 38.6362 42.6562 38.1875 42.6562H4.06258V41.0312H5.68757H9.75007H13.0001H17.0626H20.3125H24.375H27.625H31.6875H34.9375H39H42.25H46.3125H47.9375V42.6562H46.3123C45.8636 42.6562 45.4998 43.02 45.4998 43.4687C45.4998 43.9174 45.8636 44.2812 46.3123 44.2812H50.375V45.9062Z" fill="#BCDC37"/>
<path d="M41.4377 16.6562H43.0624C43.5111 16.6562 43.8749 16.2925 43.8749 15.8437C43.8749 15.395 43.5111 15.0312 43.0624 15.0312H41.4377C40.989 15.0312 40.6252 15.395 40.6252 15.8437C40.6252 16.2925 40.9889 16.6562 41.4377 16.6562Z" fill="#BCDC37"/>
<path d="M28.4375 10.1562C27.9888 10.1562 27.625 10.52 27.625 10.9687C27.625 11.8647 26.896 12.5937 26 12.5937C25.104 12.5937 24.375 11.8647 24.375 10.9687C24.375 10.0728 25.104 9.34375 26 9.34375C26.4487 9.34375 26.8125 8.97995 26.8125 8.53125C26.8125 8.08255 26.4487 7.71875 26 7.71875C24.2079 7.71875 22.75 9.17668 22.75 10.9687C22.75 12.7608 24.2079 14.2187 26 14.2187C27.7921 14.2187 29.25 12.7608 29.25 10.9687C29.25 10.5199 28.8862 10.1562 28.4375 10.1562Z" fill="#BCDC37"/>
</g>
<defs>
<clipPath id="clip0">
<rect width="52" height="52" fill="white"/>
</clipPath>
</defs>
</svg>
