<svg width="36" height="36" viewBox="0 0 36 36" fill="none" xmlns="http://www.w3.org/2000/svg">
<path d="M25.7625 23.8441C27.9348 22.2149 29.5394 19.9435 30.349 17.3517C31.1586 14.7598 31.1322 11.979 30.2736 9.40294C29.4149 6.82693 27.7675 4.58639 25.5647 2.99869C23.3619 1.411 20.7153 0.556641 18 0.556641C15.2846 0.556641 12.6381 1.411 10.4353 2.99869C8.23248 4.58639 6.58506 6.82693 5.72639 9.40294C4.86772 11.979 4.84133 14.7598 5.65096 17.3517C6.4606 19.9435 8.0652 22.2149 10.2375 23.8441L3.53811 30.5379C3.45611 30.6206 3.4018 30.7267 3.38265 30.8415C3.36351 30.9564 3.38048 31.0743 3.43123 31.1791C3.4814 31.283 3.56227 31.3689 3.66288 31.4252C3.76349 31.4816 3.87899 31.5056 3.99373 31.4941L8.43748 31.0048V34.8748C8.43804 34.9858 8.47145 35.0942 8.53351 35.1863C8.59558 35.2784 8.68351 35.3501 8.78623 35.3923C8.85299 35.4238 8.9262 35.4392 8.99998 35.4373C9.07401 35.4377 9.1474 35.4235 9.21593 35.3955C9.28447 35.3675 9.3468 35.3263 9.39936 35.2741L18 26.6679L26.6006 35.2741C26.6532 35.3263 26.7155 35.3675 26.784 35.3955C26.8526 35.4235 26.926 35.4377 27 35.4373C27.0738 35.4392 27.147 35.4238 27.2137 35.3923C27.3165 35.3501 27.4044 35.2784 27.4665 35.1863C27.5285 35.0942 27.5619 34.9858 27.5625 34.8748V31.0048L32.0006 31.4941C32.1154 31.5056 32.2309 31.4816 32.3315 31.4252C32.4321 31.3689 32.5129 31.283 32.5631 31.1791C32.6139 31.0743 32.6308 30.9564 32.6117 30.8415C32.5925 30.7267 32.5382 30.6206 32.4562 30.5379L25.7625 23.8441ZM6.18748 13.4998C6.18748 11.1635 6.88027 8.87965 8.17825 6.93709C9.47622 4.99454 11.3211 3.4805 13.4795 2.58644C15.638 1.69238 18.0131 1.45845 20.3045 1.91424C22.5959 2.37003 24.7007 3.49506 26.3527 5.14707C28.0047 6.79907 29.1297 8.90386 29.5855 11.1953C30.0413 13.4867 29.8074 15.8618 28.9133 18.0202C28.0192 20.1787 26.5052 22.0235 24.5627 23.3215C22.6201 24.6195 20.3363 25.3123 18 25.3123C14.8671 25.3123 11.8626 24.0677 9.64728 21.8525C7.43201 19.6372 6.18748 16.6326 6.18748 13.4998ZM9.37686 29.9529C9.31733 29.9008 9.24748 29.8619 9.17188 29.8386C9.09628 29.8153 9.01662 29.8083 8.93811 29.8179L5.46748 30.2004L11.1825 24.4854C12.8529 25.533 14.7439 26.1781 16.7062 26.3698L9.56248 33.5191V30.3748C9.56309 30.2953 9.54686 30.2167 9.51486 30.1439C9.48287 30.0712 9.43584 30.0061 9.37686 29.9529ZM27.0619 29.8123C26.9833 29.8027 26.9037 29.8097 26.8281 29.833C26.7525 29.8562 26.6826 29.8952 26.6231 29.9473C26.5634 30.0011 26.516 30.0671 26.4839 30.1409C26.4519 30.2146 26.4361 30.2944 26.4375 30.3748V33.5191L19.2937 26.3698C21.2561 26.1781 23.1471 25.533 24.8175 24.4854L30.5325 30.2004L27.0619 29.8123Z" fill="#A8CA1A"/>
<path d="M28.6873 13.5C28.6873 11.3862 28.0605 9.3199 26.8861 7.56235C25.7117 5.8048 24.0426 4.43495 22.0897 3.62604C20.1368 2.81713 17.9879 2.60548 15.9147 3.01786C13.8416 3.43024 11.9372 4.44813 10.4426 5.9428C8.94788 7.43747 7.93 9.3418 7.51762 11.415C7.10524 13.4881 7.31689 15.637 8.1258 17.5899C8.93471 19.5428 10.3046 21.212 12.0621 22.3863C13.8197 23.5607 15.886 24.1875 17.9998 24.1875C20.8343 24.1875 23.5527 23.0615 25.557 21.0572C27.5613 19.0529 28.6873 16.3345 28.6873 13.5ZM8.85914 10.6875H14.6248C14.6988 10.6879 14.7722 10.6737 14.8407 10.6458C14.9092 10.6178 14.9716 10.5765 15.0241 10.5244L17.2741 8.27438C17.3263 8.22182 17.3675 8.15949 17.3955 8.09095C17.4235 8.02242 17.4377 7.94903 17.4373 7.875V6.1875C17.7356 6.1875 18.0218 6.30603 18.2328 6.51701C18.4437 6.72799 18.5623 7.01414 18.5623 7.3125V10.125C18.5623 10.2742 18.6215 10.4173 18.727 10.5228C18.8325 10.6282 18.9756 10.6875 19.1248 10.6875H24.1873V11.8125H19.6873V12.9375H24.1873V14.0625H19.6873V15.1875H24.1873V16.3125H19.6873V17.4375H24.1873V18C24.1873 18.1492 24.128 18.2923 24.0225 18.3978C23.917 18.5032 23.774 18.5625 23.6248 18.5625H17.0098L14.8779 17.4994C14.7995 17.4592 14.7128 17.438 14.6248 17.4375H9.29789C8.73019 16.2025 8.43659 14.8592 8.43726 13.5C8.43849 12.5468 8.58066 11.5991 8.85914 10.6875ZM9.89976 18.5625H14.4898L16.6216 19.6256C16.7 19.6658 16.7867 19.687 16.8748 19.6875H23.6248C24.0723 19.6875 24.5015 19.5097 24.818 19.1932C25.1345 18.8768 25.3123 18.4476 25.3123 18V10.125C25.3123 9.97582 25.253 9.83275 25.1475 9.72726C25.042 9.62177 24.899 9.5625 24.7498 9.5625H19.6873V7.3125C19.6873 6.71577 19.4502 6.14347 19.0283 5.72151C18.6063 5.29956 18.034 5.0625 17.4373 5.0625H16.8748C16.7256 5.0625 16.5825 5.12177 16.477 5.22726C16.3715 5.33275 16.3123 5.47582 16.3123 5.625V7.64438L14.3941 9.5625H9.29789C10.1756 7.61998 11.6771 6.0264 13.5641 5.03487C15.4511 4.04334 17.6152 3.71071 19.7128 4.08981C21.8105 4.46891 23.7213 5.538 25.1418 7.12729C26.5623 8.71658 27.4111 10.7349 27.5534 12.8618C27.6956 14.9887 27.1231 17.1021 25.9269 18.8663C24.7306 20.6306 22.9791 21.9446 20.9507 22.5997C18.9222 23.2547 16.733 23.2132 14.7309 22.4818C12.7287 21.7503 11.0283 20.3709 9.89976 18.5625Z" fill="#A8CA1A"/>
<path d="M5.06238 6.18714C5.15096 6.19045 5.23907 6.17278 5.31952 6.13557C5.39997 6.09836 5.47049 6.04266 5.52532 5.97302C5.58016 5.90338 5.61776 5.82176 5.63506 5.73483C5.65236 5.64789 5.64888 5.5581 5.62488 5.47277L5.14676 3.85839L5.95676 3.26777C6.04301 3.20456 6.10945 3.11807 6.14831 3.01845C6.18716 2.91882 6.19681 2.81018 6.17613 2.70527C6.1587 2.59702 6.11002 2.49622 6.03607 2.41528C5.96212 2.33433 5.86612 2.27676 5.75988 2.24964L4.44926 1.93464L3.88676 0.860269C3.83856 0.770971 3.7671 0.696375 3.67996 0.644383C3.59281 0.592391 3.49323 0.564941 3.39176 0.564941C3.29028 0.564941 3.1907 0.592391 3.10355 0.644383C3.01641 0.696375 2.94495 0.770971 2.89676 0.860269L2.33426 1.93464L0.98988 2.24964C0.881565 2.27483 0.783145 2.33155 0.707055 2.41265C0.630965 2.49374 0.580619 2.59557 0.56238 2.70527C0.541697 2.81018 0.551348 2.91882 0.590202 3.01845C0.629056 3.11807 0.695503 3.20456 0.781755 3.26777L1.603 3.85839L1.12488 5.47277C1.09334 5.5851 1.09752 5.70445 1.13682 5.8143C1.17613 5.92415 1.24862 6.01907 1.34425 6.08589C1.43952 6.15372 1.55356 6.19017 1.6705 6.19017C1.78745 6.19017 1.90149 6.15372 1.99676 6.08589L3.37488 5.06214L4.73051 6.05777C4.82419 6.13571 4.94066 6.18111 5.06238 6.18714ZM4.16801 3.18339C4.07144 3.24835 3.9974 3.34167 3.9561 3.45047C3.91479 3.55928 3.90825 3.67822 3.93738 3.79089L4.05551 4.20714L3.70676 3.93714C3.61042 3.86675 3.4942 3.82881 3.37488 3.82881C3.25557 3.82881 3.13934 3.86675 3.04301 3.93714L2.67176 4.20714L2.81238 3.79089C2.84382 3.68049 2.84073 3.56312 2.80353 3.45453C2.76632 3.34593 2.69679 3.25132 2.60426 3.18339L2.41863 3.06527L2.81238 2.96402C2.88721 2.94487 2.95729 2.91051 3.01826 2.86309C3.07923 2.81567 3.12978 2.7562 3.16676 2.68839L3.37488 2.31714L3.57738 2.68839C3.61498 2.7568 3.6664 2.81663 3.72838 2.86408C3.79036 2.91154 3.86153 2.94557 3.93738 2.96402L4.33676 3.06527L4.16801 3.18339Z" fill="#A8CA1A"/>
<path d="M35.4374 2.70554C35.4191 2.59584 35.3688 2.49401 35.2927 2.41292C35.2166 2.33182 35.1182 2.2751 35.0099 2.24992L33.6992 1.91804L33.1367 0.843667C33.0885 0.75437 33.0171 0.679773 32.9299 0.627781C32.8428 0.57579 32.7432 0.54834 32.6417 0.54834C32.5403 0.54834 32.4407 0.57579 32.3535 0.627781C32.2664 0.679773 32.1949 0.75437 32.1467 0.843667L31.5842 1.91804L30.2399 2.24992C30.1359 2.27581 30.0415 2.33086 29.9678 2.40859C29.894 2.48632 29.844 2.58349 29.8236 2.68867C29.8029 2.79358 29.8126 2.90222 29.8514 3.00184C29.8903 3.10147 29.9567 3.18796 30.043 3.25117L30.853 3.84179L30.3749 5.47304C30.3433 5.58537 30.3475 5.70473 30.3868 5.81458C30.4261 5.92443 30.4986 6.01934 30.5942 6.08617C30.6895 6.154 30.8035 6.19044 30.9205 6.19044C31.0374 6.19044 31.1515 6.154 31.2467 6.08617L32.6249 5.06242L33.9805 6.05804C34.0742 6.13598 34.1906 6.18138 34.3124 6.18742C34.4009 6.19073 34.489 6.17305 34.5695 6.13584C34.6499 6.09863 34.7205 6.04294 34.7753 5.97329C34.8301 5.90365 34.8677 5.82204 34.885 5.7351C34.9023 5.64817 34.8989 5.55837 34.8749 5.47304L34.4192 3.85867L35.2292 3.26804C35.3135 3.20347 35.3777 3.11638 35.4145 3.01684C35.4513 2.91731 35.4593 2.80939 35.4374 2.70554ZM33.4292 3.18367C33.3306 3.24709 33.2543 3.33974 33.211 3.44866C33.1676 3.55758 33.1593 3.67733 33.1874 3.79117L33.3055 4.20742L32.9567 3.93742C32.8604 3.86702 32.7442 3.82908 32.6249 3.82908C32.5055 3.82908 32.3893 3.86702 32.293 3.93742L31.9217 4.20742L32.0624 3.79117C32.0938 3.68077 32.0907 3.56339 32.0535 3.4548C32.0163 3.34621 31.9468 3.25159 31.8542 3.18367L31.6911 3.06554L32.0624 2.96429C32.1372 2.94514 32.2073 2.91079 32.2682 2.86337C32.3292 2.81595 32.3798 2.75648 32.4167 2.68867L32.6249 2.31742L32.8274 2.68867C32.8643 2.75648 32.9149 2.81595 32.9759 2.86337C33.0368 2.91079 33.1069 2.94514 33.1817 2.96429L33.5811 3.06554L33.4292 3.18367Z" fill="#A8CA1A"/>
</svg>
