<svg width="36" height="36" viewBox="0 0 36 36" fill="none" xmlns="http://www.w3.org/2000/svg">
<path d="M28.125 25.3125H22.3476C24.4901 24.1251 26.091 22.0877 26.7109 19.6599C28.1318 19.5199 29.25 18.3319 29.25 16.875C29.25 15.5171 28.2819 14.3809 27 14.1193V12.9375H29.25C29.5611 12.9375 29.8125 12.6861 29.8125 12.375V10.125C29.8125 9.81394 29.5611 9.5625 29.25 9.5625H28.6588C28.3652 4.55175 24.2078 0.5625 19.125 0.5625H16.875C11.7922 0.5625 7.63481 4.55175 7.34119 9.5625H6.75C6.43894 9.5625 6.1875 9.81394 6.1875 10.125V12.375C6.1875 12.6861 6.43894 12.9375 6.75 12.9375H9V14.1193C7.71806 14.3809 6.75 15.5166 6.75 16.875C6.75 18.3319 7.86825 19.5199 9.28912 19.6599C9.909 22.0877 11.5104 24.1251 13.6524 25.3125H7.875C5.70431 25.3125 3.9375 27.0793 3.9375 29.25V34.875C3.9375 35.1861 4.18894 35.4375 4.5 35.4375H31.5C31.8111 35.4375 32.0625 35.1861 32.0625 34.875V29.25C32.0625 27.0793 30.2957 25.3125 28.125 25.3125ZM28.125 34.3125H7.875V32.0625H28.125V34.3125ZM14.1075 26.4375C14.382 28.3421 16.0206 29.8125 18 29.8125C19.9794 29.8125 21.618 28.3421 21.8925 26.4375H23.625V30.9375H12.375V26.4375H14.1075ZM20.7557 26.4375C20.4941 27.7194 19.3584 28.6875 18 28.6875C16.6416 28.6875 15.5059 27.7194 15.2443 26.4375H20.7557ZM11.25 30.9375H10.125V26.4375H11.25V30.9375ZM24.75 30.9375V26.4375H25.875V30.9375H24.75ZM28.125 16.875C28.125 17.6316 27.6216 18.2655 26.9347 18.4792C26.9741 18.1367 27 17.7902 27 17.4375V15.291C27.6531 15.5239 28.125 16.1426 28.125 16.875ZM25.9014 5.11875L23.6964 6.58856L23.2239 6.11606L24.7388 3.84356C25.1685 4.22775 25.5578 4.65469 25.9014 5.11875ZM19.125 1.6875C19.2718 1.6875 19.4147 1.70213 19.5598 1.70944L18.6643 6.1875H17.3363L16.4408 1.70944C16.5853 1.70213 16.7282 1.6875 16.875 1.6875H19.125ZM11.6184 3.53587L13.338 6.11606L12.8655 6.58856L10.2853 4.869C10.6796 4.37625 11.1263 3.92962 11.6184 3.53587ZM9.64687 5.79488L12.6253 7.7805C12.7204 7.84406 12.8295 7.875 12.9375 7.875C13.0826 7.875 13.2266 7.81875 13.3352 7.71019L14.4602 6.58519C14.6498 6.39562 14.6796 6.09862 14.5305 5.87531L12.5449 2.89688C13.3869 2.39063 14.3207 2.02444 15.3191 1.83769L16.3238 6.86081C16.3761 7.12294 16.6067 7.3125 16.875 7.3125H19.125C19.3933 7.3125 19.6239 7.12294 19.6762 6.86025L20.6809 1.83713C21.8379 2.05425 22.9146 2.50313 23.8545 3.14156L22.032 5.87531C21.8829 6.09806 21.9128 6.39562 22.1023 6.58519L23.2273 7.71019C23.3359 7.81875 23.4799 7.875 23.625 7.875C23.733 7.875 23.8421 7.84406 23.9372 7.7805L26.5157 6.0615C27.0956 7.11225 27.4506 8.30025 27.5344 9.5625H8.46619C8.55731 8.19056 8.97581 6.91087 9.64687 5.79488ZM7.3125 10.6875H28.6875V11.8125H7.3125V10.6875ZM7.875 16.875C7.875 16.1426 8.34694 15.5239 9 15.291V17.4375C9 17.7902 9.02587 18.1367 9.06525 18.4792C8.37844 18.2655 7.875 17.6316 7.875 16.875ZM10.125 17.4375V12.9375H25.875V17.4375C25.875 21.78 22.3425 25.3125 18 25.3125C13.6575 25.3125 10.125 21.78 10.125 17.4375ZM5.0625 29.25C5.0625 27.6992 6.32419 26.4375 7.875 26.4375H9V30.9375H7.3125C7.00144 30.9375 6.75 31.1889 6.75 31.5V34.3125H5.0625V29.25ZM30.9375 34.3125H29.25V31.5C29.25 31.1889 28.9986 30.9375 28.6875 30.9375H27V26.4375H28.125C29.6758 26.4375 30.9375 27.6992 30.9375 29.25V34.3125Z" fill="#A8CA1A"/>
</svg>
