<svg width="35" height="35" viewBox="0 0 35 35" fill="none" xmlns="http://www.w3.org/2000/svg">
<g clip-path="url(#clip0)">
<path d="M34.4323 23.1001C34.7194 23.1001 34.9522 22.8673 34.9522 22.5802V10.0365C34.9522 9.32545 34.6756 8.65627 34.1722 8.15079C33.6681 7.64877 32.9989 7.37213 32.2878 7.37213H26.3734V0.519638C26.3734 0.232582 26.1408 0 25.8537 0H13.1597C12.8727 0 12.6401 0.232582 12.6401 0.519638V7.8899C12.6401 8.17696 12.8727 8.40954 13.1597 8.40954C13.4468 8.40954 13.6794 8.17696 13.6794 7.8899V1.03954H25.3341V7.37213H19.5943C19.594 7.37213 19.5935 7.3724 19.593 7.3724C18.8824 7.37267 18.2135 7.64904 17.7085 8.15239C17.4394 8.42262 17.2319 8.7492 17.0989 9.10355C16.9814 9.08646 16.8613 9.07738 16.7392 9.07738H5.36968C5.08263 9.07738 4.85004 9.30996 4.85004 9.59702C4.85004 9.88407 5.08263 10.1167 5.36968 10.1167H16.7392C17.5433 10.1167 18.1972 10.7706 18.1972 11.5746V32.5027C18.1972 33.3065 17.5433 33.9607 16.7392 33.9607H2.56588C1.76186 33.9607 1.1079 33.3068 1.1079 32.5027V11.5746C1.1079 10.7709 1.76186 10.1167 2.56588 10.1167H3.6372C3.92426 10.1167 4.15684 9.88407 4.15684 9.59702C4.15684 9.30996 3.92426 9.07738 3.6372 9.07738H2.56588C1.18855 9.07738 0.0683594 10.1976 0.0683594 11.5746V32.5027C0.0683594 33.8798 1.18855 35 2.56588 35H16.7392C18.1163 35 19.2368 33.8798 19.2368 32.5027V12.701H21.2194V32.3508C21.2194 32.6379 21.452 32.8704 21.7391 32.8704H34.4326C34.7196 32.8704 34.9522 32.6379 34.9522 32.3508V24.3127C34.9522 24.0257 34.7196 23.7931 34.4326 23.7931C34.1455 23.7931 33.9127 24.0257 33.9127 24.3127V31.8309H22.2587V10.0365C22.2587 9.4416 22.0651 8.87604 21.7073 8.41167H32.2878C32.722 8.41167 33.1308 8.5807 33.4371 8.88592C33.7439 9.19353 33.9127 9.60236 33.9127 10.0365V22.5802C33.9127 22.8673 34.1455 23.1001 34.4323 23.1001ZM20.7433 8.88618C21.0504 9.1938 21.2194 9.60209 21.2194 10.0365V11.6617H19.2365V11.5746C19.2365 10.6878 18.7713 9.90784 18.0728 9.46484C18.1529 9.24988 18.2779 9.05361 18.4437 8.88725C18.7513 8.58044 19.1601 8.41167 19.5943 8.41167H19.5956C20.029 8.41194 20.437 8.58097 20.7433 8.88618Z" fill="#A8CA1A"/>
<path d="M17.1577 11.6759C17.1577 11.3888 16.9251 11.1562 16.6381 11.1562H2.66685C2.38007 11.1562 2.14722 11.3888 2.14722 11.6759V16.8165C2.14722 17.1035 2.38007 17.3364 2.66685 17.3364H16.6381C16.9251 17.3364 17.1577 17.1035 17.1577 16.8165V11.6759ZM16.1184 16.2968H3.18676V12.1955H16.1184V16.2968Z" fill="#A8CA1A"/>
<path d="M16.6381 18.4878H2.66685C2.38007 18.4878 2.14722 18.7204 2.14722 19.0074V32.4577C2.14722 32.7447 2.38007 32.9776 2.66685 32.9776H16.6381C16.9251 32.9776 17.1577 32.7447 17.1577 32.4577V19.0074C17.1577 18.7204 16.9251 18.4878 16.6381 18.4878ZM16.1184 23.0844H12.5979V19.5271H16.1184V23.0844ZM16.1184 27.3414H12.5979V24.1237H16.1184V27.3414ZM3.18676 24.1237H6.707V27.3414H3.18676V24.1237ZM7.74628 24.1237H11.5586V27.3414H7.74628V24.1237ZM11.5586 19.5271V23.0844H7.74628V19.5271H11.5586ZM6.707 19.5271V23.0844H3.18676V19.5271H6.707ZM3.18676 28.3809H6.707V31.938H3.18676V28.3809ZM7.74628 31.938V28.3809H11.5586V31.938H7.74628ZM12.5982 31.938V28.3809H16.1184V31.938H12.5982Z" fill="#A8CA1A"/>
<path d="M25.1533 15.0034H23.7675C23.4804 15.0034 23.2476 15.236 23.2476 15.5231C23.2476 15.8101 23.4804 16.0427 23.7675 16.0427H25.1533C25.4401 16.0427 25.673 15.8101 25.673 15.5231C25.673 15.236 25.4401 15.0034 25.1533 15.0034Z" fill="#A8CA1A"/>
<path d="M32.4291 10.0034H26.955C26.6679 10.0034 26.4351 10.236 26.4351 10.5231C26.4351 10.8101 26.6679 11.0427 26.955 11.0427H32.4291C32.7161 11.0427 32.9487 10.8101 32.9487 10.5231C32.9487 10.236 32.7161 10.0034 32.4291 10.0034Z" fill="#A8CA1A"/>
<path d="M25.1533 21.7139H23.7675C23.4804 21.7139 23.2476 21.9467 23.2476 22.2338C23.2476 22.5208 23.4804 22.7534 23.7675 22.7534H25.1533C25.4401 22.7534 25.673 22.5208 25.673 22.2338C25.673 21.9467 25.4401 21.7139 25.1533 21.7139Z" fill="#A8CA1A"/>
<path d="M32.9487 22.2338C32.9487 21.9467 32.7161 21.7139 32.4291 21.7139H26.955C26.6679 21.7139 26.4351 21.9467 26.4351 22.2338C26.4351 22.5208 26.6679 22.7534 26.955 22.7534H32.4291C32.7161 22.7534 32.9487 22.5208 32.9487 22.2338Z" fill="#A8CA1A"/>
<path d="M25.1533 18.7861H23.7675C23.4804 18.7861 23.2476 19.0187 23.2476 19.3058C23.2476 19.5928 23.4804 19.8254 23.7675 19.8254H25.1533C25.4401 19.8254 25.673 19.5928 25.673 19.3058C25.673 19.0187 25.4401 18.7861 25.1533 18.7861Z" fill="#A8CA1A"/>
<path d="M32.4291 18.7861H26.955C26.6679 18.7861 26.4351 19.0187 26.4351 19.3058C26.4351 19.5928 26.6679 19.8254 26.955 19.8254H32.4291C32.7161 19.8254 32.9487 19.5928 32.9487 19.3058C32.9487 19.0187 32.7161 18.7861 32.4291 18.7861Z" fill="#A8CA1A"/>
<path d="M25.1533 15.8589H23.7675C23.4804 15.8589 23.2476 16.0915 23.2476 16.3785C23.2476 16.6656 23.4804 16.8982 23.7675 16.8982H25.1533C25.4401 16.8982 25.673 16.6656 25.673 16.3785C25.673 16.0915 25.4401 15.8589 25.1533 15.8589Z" fill="#A8CA1A"/>
<path d="M32.4291 15.8589H26.955C26.6679 15.8589 26.4351 16.0915 26.4351 16.3785C26.4351 16.6656 26.6679 16.8982 26.955 16.8982H32.4291C32.7161 16.8982 32.9487 16.6656 32.9487 16.3785C32.9487 16.0915 32.7161 15.8589 32.4291 15.8589Z" fill="#A8CA1A"/>
<path d="M25.1533 12.9312H23.7675C23.4804 12.9312 23.2476 13.1637 23.2476 13.4508C23.2476 13.7378 23.4804 13.9704 23.7675 13.9704H25.1533C25.4401 13.9704 25.673 13.7378 25.673 13.4508C25.673 13.1637 25.4401 12.9312 25.1533 12.9312Z" fill="#A8CA1A"/>
<path d="M32.4291 12.9312H26.955C26.6679 12.9312 26.4351 13.1637 26.4351 13.4508C26.4351 13.7378 26.6679 13.9704 26.955 13.9704H32.4291C32.7161 13.9704 32.9487 13.7378 32.9487 13.4508C32.9487 13.1637 32.7161 12.9312 32.4291 12.9312Z" fill="#A8CA1A"/>
<path d="M15.1747 3.46288H16.5605C16.8476 3.46288 17.0805 3.23003 17.0805 2.94298C17.0805 2.65592 16.8476 2.42334 16.5605 2.42334H15.1747C14.8876 2.42334 14.655 2.65592 14.655 2.94298C14.655 3.23003 14.8876 3.46288 15.1747 3.46288Z" fill="#A8CA1A"/>
<path d="M18.3622 3.46288H23.8365C24.1236 3.46288 24.3562 3.23003 24.3562 2.94298C24.3562 2.65592 24.1236 2.42334 23.8365 2.42334H18.3622C18.0754 2.42334 17.8425 2.65592 17.8425 2.94298C17.8425 3.23003 18.0754 3.46288 18.3622 3.46288Z" fill="#A8CA1A"/>
<path d="M15.1747 6.39062H16.5605C16.8476 6.39062 17.0805 6.15777 17.0805 5.87071C17.0805 5.58366 16.8476 5.35107 16.5605 5.35107H15.1747C14.8876 5.35107 14.655 5.58366 14.655 5.87071C14.655 6.15777 14.8876 6.39062 15.1747 6.39062Z" fill="#A8CA1A"/>
<path d="M18.3622 6.39062H23.8365C24.1236 6.39062 24.3562 6.15777 24.3562 5.87071C24.3562 5.58366 24.1236 5.35107 23.8365 5.35107H18.3622C18.0754 5.35107 17.8425 5.58366 17.8425 5.87071C17.8425 6.15777 18.0754 6.39062 18.3622 6.39062Z" fill="#A8CA1A"/>
<path d="M28.1013 30.437C28.1531 30.4859 28.2282 30.5139 28.3075 30.5139H28.32C28.5166 30.5139 28.6768 30.3537 28.6768 30.1572V30.0816C29.4878 29.9083 29.9524 29.3473 29.9524 28.5406C29.9524 27.6273 29.3406 27.2623 28.6768 27.006V25.7258C28.8904 25.7595 29.0338 25.8321 29.1497 25.8908C29.2496 25.9413 29.3286 25.9814 29.4167 25.9814C29.699 25.9814 29.821 25.6364 29.821 25.4604C29.821 25.085 29.233 24.9109 28.6768 24.8727V24.7952C28.6768 24.5984 28.5166 24.4385 28.32 24.4385C28.1235 24.4385 27.9633 24.5984 27.9633 24.7952V24.8954C27.1133 25.0374 26.626 25.5568 26.626 26.3216C26.626 27.2618 27.3953 27.5574 27.9633 27.7713V29.2079C27.6501 29.1483 27.4463 28.9902 27.2818 28.8626C27.1478 28.7585 27.042 28.6762 26.9205 28.6762C26.6775 28.6762 26.4946 28.9967 26.4946 29.2047C26.4946 29.5969 27.097 30.0674 27.9633 30.1214V30.1569C27.9633 30.2672 28.014 30.3697 28.1013 30.437ZM27.9633 25.7683V26.7344C27.7462 26.6345 27.551 26.5013 27.551 26.227C27.551 26.0067 27.6936 25.8484 27.9633 25.7683ZM28.6768 29.1606V28.0743C28.9187 28.2172 29.0271 28.3916 29.0271 28.6354C29.0271 28.881 28.9062 29.0621 28.6768 29.1606Z" fill="#A8CA1A"/>
<path d="M13.8929 15.6855H15.0016C15.2887 15.6855 15.5213 15.4527 15.5213 15.1659C15.5213 14.8788 15.2887 14.646 15.0016 14.646H13.8929C13.6059 14.646 13.3733 14.8788 13.3733 15.1659C13.3733 15.4527 13.6059 15.6855 13.8929 15.6855Z" fill="#A8CA1A"/>
</g>
<defs>
<clipPath id="clip0">
<rect width="35" height="35" fill="white"/>
</clipPath>
</defs>
</svg>
