<svg width="90" height="18" viewBox="0 0 90 18" fill="none" xmlns="http://www.w3.org/2000/svg">
<g clip-path="url(#clip0)">
<path d="M12.2887 14.2248C9.98245 14.2248 9.16784 12.4724 9.16784 8.81611C9.16784 5.28966 10.0671 3.75361 11.8656 3.75361C13.2515 3.75361 14.0132 4.85697 14.2565 6.15505H18.6258C18.2555 3.21274 16.0444 0.508413 12.0454 0.508413C8.13107 0.508413 4.29077 3.10457 4.29077 9.11899C4.29077 15.0036 8.2686 17.47 11.3895 17.47C15.2933 17.47 17.663 15.8257 18.7633 12.0072H15.0711C14.6056 13.2188 13.6641 14.2248 12.2887 14.2248ZM34.7275 5.53846C34.7275 3.41827 33.6801 0.822115 28.2953 0.822115H20.5512V17.1671H25.1744V10.4603H27.2691L29.5542 17.1671H34.6852L31.6701 9.63822C33.458 8.9351 34.7275 7.57212 34.7275 5.53846ZM27.5653 7.35577H25.1744V3.9375H27.7663C29.1945 3.9375 29.861 4.67308 29.861 5.71154C29.8504 6.77163 28.8877 7.35577 27.5653 7.35577ZM41.6781 10.5361H46.5023V7.16106H41.6781V4.19712H49.2212V0.822115H37.0549V17.1671H49.4539V13.6623H41.6781V10.5361ZM55.9602 13.6623V10.5361H60.7844V7.16106H55.9602V4.19712H63.5033V0.822115H51.3476V17.1671H63.7466V13.6623H55.9602ZM81.4035 4.65144L76.8121 0L72.2101 4.65144H81.4035ZM72.0937 13.2188L76.8121 18L81.5304 13.2188H72.0937ZM69.7556 7.12861L67.9148 9L69.6393 10.7416H83.9743L85.7093 9L83.8579 7.12861H69.7556ZM82.0065 17.1562V15.7284H81.467V15.4796H82.8211V15.7284H82.2816V17.1562H82.0065ZM83.0115 17.1562V15.4796H83.4136L83.8367 16.8209L84.2387 15.4796H84.6408V17.1562H84.3869V15.75L83.9637 17.1562H83.7098L83.2654 15.7284V17.1562H83.0115Z" fill="black"/>
</g>
<defs>
<clipPath id="clip0">
<rect width="90" height="18" fill="white"/>
</clipPath>
</defs>
</svg>
