<svg width="103" height="33" viewBox="0 0 103 33" fill="none" xmlns="http://www.w3.org/2000/svg">
<path d="M81.5521 10.1159C80.4551 9.01324 78.9286 8.29496 76.3974 8.23187C74.7503 8.1892 74.5487 8.25564 69.5692 8.32941V25.4946L74.0738 25.5012L74.0721 21.8364C75.1129 21.8126 75.7242 21.8692 76.4371 21.8053C82.5426 21.4937 83.3878 16.5091 83.4083 15.153C83.4513 12.8008 82.6104 11.1801 81.5521 10.1159ZM74.0705 17.9438V18.0102L74.0671 12.1515C76.3389 11.7523 78.6188 12.5623 78.5057 15.1136C78.4056 17.3862 76.4892 18.1446 74.0705 17.9438ZM85.3869 25.5052C86.1269 25.6241 88.3376 26.0964 91.1808 25.8569C93.6797 25.6462 96.818 24.1828 96.8717 20.2819C96.894 18.6012 96.3727 16.6476 93.9176 15.6859L90.226 14.3774C89.8245 14.2159 89.4981 13.8609 89.4866 13.5371C89.4627 12.8993 89.9839 12.3016 91.1504 12.1582C92.1895 12.0303 93.1701 12.0228 95.189 12.4886L95.1213 8.28111C93.3204 8.03433 92.1135 8.05564 91.1958 8.02201C88.2178 7.91379 85.234 9.79043 85.0507 13.4969C84.9574 15.3301 85.8025 17.3904 87.989 18.1725L91.3917 19.3965C92.2367 19.7572 92.2664 20.1139 92.2871 20.3967C92.3276 20.914 91.8196 21.31 91.1512 21.5682C90.2674 21.911 87.6554 21.938 85.4059 21.2608L85.3869 25.5052ZM27.1192 14.7291H31.9575L31.9459 8.3466H36.4472V25.5084H31.9459L31.9575 18.6184H27.1192L27.1085 25.5084H22.6081V8.3466H27.1085L27.1192 14.7291ZM40.6825 25.5084H45.1829V8.3466H40.6825V25.5084ZM60.7874 25.5084H65.2886V8.3466H60.7874V25.5084ZM53.9111 21.6117H58.556V25.5011L49.4165 25.5084V8.3466H53.9177L53.9111 21.6117ZM18.5596 10.1159C17.4618 9.01324 15.9351 8.29496 13.4041 8.23187C11.7577 8.1892 11.5554 8.25564 6.57422 8.32941V25.4946L11.0795 25.5012L11.0787 21.8364C12.1203 21.8126 12.7316 21.8692 13.4454 21.8053C19.5508 21.4937 20.3951 16.5091 20.4182 15.153C20.4571 12.8008 19.6185 11.1801 18.5596 10.1159ZM11.077 17.9438V18.0102L11.0737 12.1515C13.3463 11.7523 15.6253 12.5623 15.5138 15.1136C15.4131 17.3862 13.4957 18.1446 11.077 17.9438Z" fill="black"/>
</svg>
