<svg width="139" height="43" viewBox="0 0 139 43" fill="none" xmlns="http://www.w3.org/2000/svg">
<path d="M75.0878 22.5936C75.0878 22.5936 73.9636 21.9044 73.2684 21.6377C73.2684 21.6377 71.1167 20.649 70.6897 20.1785C70.6897 20.1785 69.851 19.395 70.3421 18.4848C70.3421 18.4848 70.5476 17.8893 71.4339 17.8893C71.4339 17.8893 72.5877 17.9522 72.5877 18.8923V20.2186H76.7226L76.7154 18.2653C76.7154 18.2653 77.0334 15.0667 71.8449 14.9259C71.8449 14.9259 67.7641 14.6599 66.5938 16.839C66.5938 16.839 66.1344 17.3252 66.1344 19.0182V20.2413C66.1344 20.2413 66.0875 21.6526 66.8144 22.562C66.8144 22.562 67.2254 23.1583 68.2379 23.816C68.2379 23.816 70.2938 24.9134 71.5276 25.5419C71.5276 25.5419 72.773 26.2468 72.6093 27.3685C72.6093 27.3685 72.5077 28.5203 71.3048 28.4731C71.3048 28.4731 70.2051 28.4245 70.2051 27.2949V25.9695H65.7991V27.8948C65.7991 27.8948 65.6758 31.5766 71.3373 31.5766C71.3373 31.5766 76.7471 31.6854 76.9995 27.7983V26.2305C76.9988 26.2305 77.1907 23.8483 75.0878 22.5936ZM53.9187 15.3842L52.5342 23.9863H52.2104L50.8879 15.4615H43.981L43.6348 31.0391H47.7243L47.7733 19.3021H48.0949L50.2626 31.0369H54.5648L56.7058 19.3064H56.9906L57.0894 31.0391H61.2005L60.7578 15.3843H53.9187V15.3842ZM29.5752 15.4493L26.8543 31.0212H31.2568L32.8685 18.9475H33.2305L34.8415 31.0212H39.2432L36.5232 15.4493H29.5752ZM121.952 22.3791V24.6762H123.081V27.142C123.081 28.3473 122.042 28.3695 122.042 28.3695C120.779 28.3695 120.826 27.2242 120.826 27.2242V18.6951C120.826 17.8165 121.948 17.7693 121.948 17.7693C123.024 17.7693 123.031 18.8174 123.031 18.8174V20.1142H127.176C127.311 17.5826 126.802 16.97 126.802 16.97C125.774 14.6808 121.884 14.8059 121.884 14.8059C115.907 14.8059 116.57 19.3528 116.57 19.3528V27.5995C116.699 31.864 122.589 31.4308 122.688 31.4272C125.308 31.1398 126.099 30.3141 126.099 30.3141C126.827 29.7778 127.015 29.0351 127.015 29.0351C127.223 28.6025 127.275 27.2241 127.275 27.2241V22.379H121.952V22.3791ZM108.212 24.9135H108.032L103.826 15.3885H98.7932V31.0404H102.889L102.644 21.5169H102.827L107.185 31.0404H112.065V15.3871H107.917L108.212 24.9135ZM88.7948 27.1405C88.7948 27.1405 88.854 28.4253 87.6526 28.4253C87.6526 28.4253 86.3892 28.4925 86.3892 27.1727L86.3762 15.3979H81.8837V27.0791C81.8837 27.0791 81.4228 31.5002 87.716 31.5002C87.716 31.5002 93.185 31.5645 93.185 27.2821V15.3986H88.7948V27.1405H88.7948ZM21.0104 22.5936C21.0104 22.5936 19.8877 21.9044 19.1918 21.6385C19.1918 21.6385 17.0414 20.6504 16.6145 20.1793C16.6145 20.1793 15.7758 19.3943 16.2676 18.4863C16.2676 18.4863 16.4725 17.8907 17.358 17.8907C17.358 17.8907 18.5125 17.953 18.5125 18.8931V20.2193H22.6488L22.6409 18.2655C22.6409 18.2655 22.9567 15.0668 17.7704 14.9267C17.7704 14.9267 17.3796 14.9017 16.8063 14.9303C16.8063 14.9303 13.6643 15.0976 12.5408 16.8062C12.5344 16.8191 12.525 16.8284 12.5185 16.8398C12.5185 16.8398 12.0599 17.3253 12.0599 19.0189V20.2422C12.0599 20.2422 12.0123 21.6534 12.7399 22.5628C12.7399 22.5628 13.1509 23.159 14.1634 23.8168C14.1634 23.8168 16.2186 24.9142 17.4524 25.5426C17.4524 25.5426 18.6992 26.2462 18.5341 27.3693C18.5341 27.3693 18.4324 28.5211 17.2303 28.4739C17.2303 28.4739 16.1306 28.4252 16.1306 27.2957V25.9695H11.7238V27.8962C11.7238 27.8962 11.6005 31.5781 17.262 31.5781C17.262 31.5781 22.6704 31.6867 22.925 27.7996V26.2333C22.925 26.2318 23.114 23.8483 21.0104 22.5936Z" fill="black"/>
</svg>
